<svg width="30" height="30" viewBox="0 0 30 30" fill="none" xmlns="http://www.w3.org/2000/svg">
<path d="M23.3338 1.00049H6.66716C3.53754 1.00049 1.00049 3.53754 1.00049 6.66716V23.3338C1.00049 26.4634 3.53754 29.0005 6.66716 29.0005H23.3338C26.4634 29.0005 29.0005 26.4634 29.0005 23.3338V6.66716C29.0005 3.53754 26.4634 1.00049 23.3338 1.00049Z" />
<path d="M15 11H22" stroke="white" stroke-width="2" stroke-linecap="round" stroke-linejoin="round"/>
<path d="M15 18.5H22" stroke="white" stroke-width="2" stroke-linecap="round" stroke-linejoin="round"/>
<path d="M9.18193 12.8639C10.387 12.8639 11.3639 11.887 11.3639 10.6819C11.3639 9.47688 10.387 8.5 9.18193 8.5C7.97688 8.5 7 9.47688 7 10.6819C7 11.887 7.97688 12.8639 9.18193 12.8639Z" fill="white"/>
<path d="M9.18214 12.2095C10.0257 12.2095 10.7095 11.5257 10.7095 10.6821C10.7095 9.8386 10.0257 9.15479 9.18214 9.15479C8.3386 9.15479 7.65479 9.8386 7.65479 10.6821C7.65479 11.5257 8.3386 12.2095 9.18214 12.2095Z" fill="white"/>
<path d="M9.18193 20.3639C10.387 20.3639 11.3639 19.387 11.3639 18.1819C11.3639 16.9769 10.387 16 9.18193 16C7.97688 16 7 16.9769 7 18.1819C7 19.387 7.97688 20.3639 9.18193 20.3639Z" fill="white"/>
<path d="M9.18214 19.7095C10.0257 19.7095 10.7095 19.0257 10.7095 18.1821C10.7095 17.3386 10.0257 16.6548 9.18214 16.6548C8.3386 16.6548 7.65479 17.3386 7.65479 18.1821C7.65479 19.0257 8.3386 19.7095 9.18214 19.7095Z" fill="white"/>
</svg>
