<svg width="35" height="36" viewBox="0 0 35 36" fill="none" xmlns="http://www.w3.org/2000/svg">
<path fill-rule="evenodd" clip-rule="evenodd" d="M18.0195 2.54852C17.6764 2.48253 17.3239 2.48253 16.9808 2.54851C16.5909 2.62349 16.2312 2.80882 15.7737 3.04448L15.7737 3.04449L15.6936 3.08573L6.6368 7.74349L6.52435 7.80128C5.68694 8.23152 5.10835 8.52878 4.67522 8.97811C4.29344 9.37416 4.00347 9.84935 3.82587 10.37C3.62438 10.9607 3.62465 11.6112 3.62503 12.5526L3.62507 12.6791L3.62508 23.5V23.5336C3.62507 24.9053 3.62507 25.9807 3.69569 26.8451C3.7676 27.7252 3.91646 28.4524 4.2518 29.1105C4.80307 30.1924 5.68271 31.0721 6.76465 31.6233C7.42278 31.9587 8.1499 32.1075 9.03004 32.1794C9.89437 32.25 10.9698 32.25 12.3415 32.25H12.3751L13.5343 32.25L13.5452 32.25H13.5453C13.5902 32.2501 13.6613 32.2501 13.7267 32.2448C13.8064 32.2383 13.9408 32.2202 14.0855 32.1465C14.2643 32.0554 14.4096 31.9101 14.5007 31.7313C14.5745 31.5866 14.5925 31.4522 14.599 31.3724C14.6044 31.3071 14.6043 31.2359 14.6043 31.191L14.6043 31.18V25.3959C14.6043 23.7965 15.9008 22.5 17.5001 22.5C19.0994 22.5 20.3959 23.7965 20.3959 25.3959V31.1801L20.3959 31.1911V31.1911C20.3959 31.2361 20.3958 31.3072 20.4011 31.3725C20.4076 31.4522 20.4257 31.5866 20.4995 31.7313C20.5905 31.9101 20.7359 32.0554 20.9146 32.1465C21.0594 32.2203 21.1938 32.2383 21.2735 32.2448C21.3388 32.2502 21.41 32.2501 21.4549 32.2501L21.4659 32.2501H22.6251H22.6587H22.6587C24.0304 32.2501 25.1058 32.2501 25.9701 32.1794C26.8503 32.1075 27.5774 31.9587 28.2355 31.6233C29.3175 31.0721 30.1971 30.1924 30.7484 29.1105C31.0837 28.4524 31.2326 27.7253 31.3045 26.8451C31.3751 25.9808 31.3751 24.9054 31.3751 23.5337V23.5336V23.5001V12.679L31.3751 12.5526V12.5526C31.3755 11.6111 31.3758 10.9607 31.1743 10.37C30.9967 9.84935 30.7067 9.37416 30.3249 8.97811C29.8918 8.52878 29.3132 8.23152 28.4758 7.80128L28.3634 7.74349L19.3067 3.08573L19.2266 3.0445C18.7691 2.80883 18.4094 2.6235 18.0195 2.54852Z" fill="#E5E5E5"/>
</svg>
