<svg width="33" height="26" viewBox="0 0 33 26" fill="none" xmlns="http://www.w3.org/2000/svg">
<path d="M5.47711 12.525C7.63882 12.525 9.39123 10.7726 9.39123 8.6109C9.39123 6.44919 7.63882 4.69678 5.47711 4.69678C3.3154 4.69678 1.56299 6.44919 1.56299 8.6109C1.56299 10.7726 3.3154 12.525 5.47711 12.525Z" fill="#E5E5E5"/>
<path d="M27.3956 12.525C29.5573 12.525 31.3097 10.7726 31.3097 8.6109C31.3097 6.44919 29.5573 4.69678 27.3956 4.69678C25.2339 4.69678 23.4814 6.44919 23.4814 8.6109C23.4814 10.7726 25.2339 12.525 27.3956 12.525Z" fill="#E5E5E5"/>
<path d="M5.89937 14.0926H5.98392C6.25468 14.0803 6.52461 14.1309 6.77248 14.2406C7.02035 14.3502 7.2394 14.5158 7.41239 14.7245C7.58539 14.9331 7.70759 15.1792 7.76943 15.4431C7.83127 15.707 7.83105 15.9816 7.76876 16.2454C7.58326 16.933 7.48954 17.642 7.49006 18.3542V23.5632C7.47416 23.9732 7.2963 24.3602 6.99547 24.6394C6.69463 24.9185 6.29539 25.067 5.88528 25.0522H1.60478C1.19467 25.067 0.795428 24.9185 0.494593 24.6394C0.193758 24.3602 0.0158987 23.9732 0 23.5632V19.7962C0.0449191 18.2638 0.686968 16.8097 1.78914 15.7441C2.89131 14.6785 4.36632 14.0859 5.89937 14.0926Z" fill="#E5E5E5"/>
<path d="M26.9729 14.0926H26.8884C26.6176 14.0803 26.3477 14.1309 26.0998 14.2406C25.8519 14.3502 25.6329 14.5158 25.4599 14.7245C25.2869 14.9331 25.1647 15.1792 25.1029 15.4431C25.041 15.707 25.0412 15.9816 25.1035 16.2454C25.289 16.933 25.3827 17.642 25.3822 18.3542V23.5632C25.3981 23.9732 25.576 24.3602 25.8768 24.6394C26.1777 24.9185 26.5769 25.067 26.987 25.0522H31.2675C31.6776 25.067 32.0769 24.9185 32.3777 24.6394C32.6785 24.3602 32.8564 23.9732 32.8723 23.5632V19.7962C32.8274 18.2638 32.1853 16.8097 31.0831 15.7441C29.981 14.6785 28.506 14.0859 26.9729 14.0926Z" fill="#E5E5E5"/>
<path d="M16.4363 10.9595C19.4627 10.9595 21.9161 8.50617 21.9161 5.47977C21.9161 2.45338 19.4627 0 16.4363 0C13.4099 0 10.9565 2.45338 10.9565 5.47977C10.9565 8.50617 13.4099 10.9595 16.4363 10.9595Z" fill="#E5E5E5"/>
<path d="M23.4423 18.1317C23.4298 18.0221 23.4142 17.9155 23.3954 17.8091C23.3766 17.7026 23.3484 17.5648 23.3171 17.4442C23.2967 17.3566 23.2732 17.2673 23.2466 17.1828C23.22 17.0982 23.184 16.9793 23.148 16.8791C23.112 16.7789 23.0854 16.7115 23.0509 16.6301C23.0165 16.5486 23.0008 16.5112 22.9758 16.4533C22.9507 16.3953 22.9319 16.3561 22.9084 16.3092L22.9006 16.2904C22.8568 16.1981 22.8067 16.1041 22.755 16.0148C22.7206 15.9491 22.6846 15.8848 22.6454 15.8222C22.5859 15.7178 22.5233 15.6202 22.4575 15.5294L22.301 15.3025L22.2885 15.2869C22.2331 15.2117 22.1757 15.1396 22.1162 15.0707L22.0614 15.005C22.004 14.935 21.944 14.8677 21.8814 14.803C21.8706 14.7898 21.8591 14.7773 21.8469 14.7655C21.7874 14.7013 21.7248 14.6387 21.659 14.5761C21.5933 14.5135 21.5369 14.457 21.4743 14.4022C21.4587 14.3865 21.443 14.3725 21.4273 14.3584C21.4129 14.343 21.3972 14.3289 21.3804 14.3162C21.3146 14.2582 21.2504 14.2033 21.1847 14.1516C21.1189 14.1 21.0171 14.017 20.9295 13.9544C20.8637 13.9043 20.7964 13.8574 20.7291 13.8135C20.6617 13.7697 20.6242 13.7446 20.5725 13.7086C20.4347 13.6178 20.2938 13.5348 20.1466 13.4565C20.095 13.4268 20.0402 13.3986 19.9901 13.3736C19.959 13.355 19.9265 13.3387 19.893 13.325C19.8335 13.2922 19.7709 13.2624 19.7082 13.2343C19.5517 13.1622 19.4061 13.098 19.2495 13.0401C19.1994 13.0197 19.1524 13.0025 19.1039 12.9837C19.0554 12.9649 18.9708 12.9352 18.9004 12.9149C18.6489 12.8307 18.3927 12.7611 18.1332 12.7066C18.0471 12.6862 17.961 12.6691 17.8749 12.6534C17.7893 12.6367 17.7006 12.6227 17.6087 12.6112C17.5789 12.6039 17.5485 12.5992 17.5179 12.5971C17.4866 12.5971 17.4584 12.5876 17.424 12.5844C17.3488 12.5735 17.2674 12.5657 17.1923 12.5594H17.1375C17.0388 12.55 16.9386 12.5438 16.8368 12.5392H16.8102C16.6928 12.5392 16.5754 12.5298 16.4548 12.5298C16.3343 12.5298 16.2169 12.5298 16.0994 12.5392H16.0728C15.9711 12.5392 15.8724 12.55 15.7722 12.5594H15.7174C15.6391 12.5594 15.5609 12.5735 15.4857 12.5844C15.4513 12.5844 15.4231 12.5845 15.3917 12.5971C15.3611 12.5992 15.3308 12.6039 15.3009 12.6112C15.2091 12.6227 15.1204 12.6367 15.0348 12.6534C14.9487 12.6691 14.8626 12.6862 14.7765 12.7066C14.5169 12.7611 14.2608 12.8307 14.0093 12.9149C13.9388 12.9352 13.8715 12.9586 13.8058 12.9837C13.74 13.0087 13.7087 13.0182 13.6602 13.0401C13.5036 13.098 13.347 13.1622 13.2014 13.2343C13.1388 13.2624 13.0762 13.2922 13.0167 13.325C12.9831 13.3387 12.9507 13.355 12.9196 13.3736C12.8679 13.3986 12.8131 13.4268 12.763 13.4565C12.6174 13.5348 12.4765 13.6131 12.3372 13.7086C12.2855 13.7431 12.2323 13.776 12.1806 13.8135C12.1289 13.8511 12.0444 13.9043 11.9802 13.9544C11.891 14.017 11.808 14.0827 11.725 14.1516C11.642 14.2205 11.5951 14.2582 11.5293 14.3162C11.498 14.3412 11.4635 14.3724 11.4322 14.4022C11.3696 14.4585 11.307 14.5166 11.2475 14.5761C11.188 14.6356 11.1191 14.7013 11.0596 14.7655C11.0474 14.7774 11.0359 14.7898 11.0252 14.803C10.9625 14.8677 10.9025 14.935 10.8451 15.005C10.8263 15.0253 10.8091 15.0472 10.7903 15.0707C10.7298 15.1396 10.6724 15.2117 10.6181 15.2869L10.6056 15.3025L10.449 15.5294C10.3843 15.6244 10.3217 15.722 10.2611 15.8222C10.222 15.8848 10.186 15.9491 10.1515 16.0148C10.0999 16.1057 10.0498 16.1981 10.0059 16.2904L9.9981 16.3092C9.97461 16.3546 9.95113 16.4047 9.93078 16.4533C9.91042 16.5018 9.8791 16.569 9.85562 16.6301C9.83213 16.6911 9.7883 16.7945 9.75855 16.8791C9.72881 16.9636 9.68809 17.081 9.65991 17.1828C9.63173 17.2845 9.60981 17.3566 9.58946 17.4442C9.55815 17.5648 9.53153 17.6854 9.51117 17.8091C9.49082 17.9328 9.47673 18.0221 9.46421 18.1317C9.42646 18.3487 9.40189 18.5676 9.39062 18.7876V23.6583C9.41483 24.05 9.59307 24.4164 9.88641 24.6771C10.1798 24.9379 10.5644 25.072 10.9563 25.0502H21.9158C22.3077 25.072 22.6923 24.9379 22.9857 24.6771C23.279 24.4164 23.4573 24.05 23.4815 23.6583V18.7876C23.4816 18.5683 23.4685 18.3494 23.4423 18.1317Z" fill="#E5E5E5"/>
</svg>
