<svg width="10" height="18" viewBox="0 0 10 18" fill="none" xmlns="http://www.w3.org/2000/svg">
<path d="M9.20711 2.34773C9.59763 1.95721 9.59763 1.32404 9.20711 0.933518C8.81658 0.542994 8.18342 0.542994 7.79289 0.933518L9.20711 2.34773ZM1 9.14062L0.292893 8.43352C-0.0976311 8.82404 -0.0976311 9.45721 0.292893 9.84773L1 9.14062ZM7.79289 17.3477C8.18342 17.7383 8.81658 17.7383 9.20711 17.3477C9.59763 16.9572 9.59763 16.324 9.20711 15.9335L7.79289 17.3477ZM7.79289 0.933518L0.292893 8.43352L1.70711 9.84773L9.20711 2.34773L7.79289 0.933518ZM0.292893 9.84773L7.79289 17.3477L9.20711 15.9335L1.70711 8.43352L0.292893 9.84773Z" fill="#666666"/>
</svg>
