<svg width="232" height="231" viewBox="0 0 232 231" fill="none" xmlns="http://www.w3.org/2000/svg">
<g clip-path="url(#clip0_886_2016)">
<path d="M109.745 111.355C109.091 114.481 106.024 116.49 102.889 115.834C99.7544 115.179 97.7468 112.115 98.4011 108.985C99.0554 105.854 102.122 103.851 105.257 104.506C108.386 105.16 110.399 108.225 109.745 111.355Z" fill="#3A6DFC"/>
<path d="M144.47 102.709C143.817 105.834 140.749 107.843 137.615 107.188C134.48 106.533 132.472 103.469 133.127 100.338C133.781 97.2076 136.848 95.2041 139.982 95.8592C143.112 96.5133 145.125 99.5784 144.47 102.709Z" fill="#3A6DFC"/>
<path d="M93.3773 87.9763C91.461 91.9358 91.9742 96.3649 93.2697 100.427C94.4413 104.115 96.1582 107.653 98.9382 110.398C100.146 111.475 101.999 111.382 103.096 110.19C104.149 108.974 104.055 107.145 102.886 106.038C102.749 105.905 102.619 105.769 102.488 105.638C102.357 105.507 102.211 105.34 102.413 105.578C102.165 105.297 101.939 104.993 101.724 104.686C101.288 104.076 100.886 103.434 100.532 102.77C100.441 102.604 100.356 102.438 100.271 102.268C100.41 102.543 100.301 102.334 100.23 102.177C100.072 101.833 99.9203 101.484 99.7752 101.131C99.4717 100.385 99.1935 99.6221 98.9436 98.8541C98.6938 98.0862 98.4611 97.289 98.2777 96.4912C98.2665 96.4397 98.1564 95.9195 98.1926 96.1128C98.2288 96.3062 98.1407 95.7851 98.136 95.7294C98.0721 95.3282 98.0314 94.9208 98.0012 94.5157C97.971 94.1105 97.9617 93.7097 97.9641 93.3059C97.9645 93.2513 97.9997 92.6905 97.9775 92.9535C97.9554 93.2166 98.0231 92.6571 98.0329 92.61C98.0929 92.2182 98.1833 91.8382 98.2811 91.4489C98.4016 90.9769 98.1248 91.8041 98.3019 91.3494C98.3941 91.1174 98.5021 90.8886 98.609 90.6651C99.3688 89.2285 98.8208 87.453 97.3884 86.6892C95.9496 85.9295 94.1723 86.476 93.4083 87.9063C93.3987 87.9261 93.3828 87.9501 93.3731 87.9699" fill="#3A6DFC"/>
<path d="M142.227 86.6947C142.626 86.6961 143.029 86.7039 143.43 86.7222C142.916 86.6966 144.035 86.7831 144.141 86.7998C144.84 86.8857 145.531 87.0083 146.221 87.1634C147.546 87.4185 148.827 87.861 150.021 88.4821C150.747 88.8306 151.448 89.2176 152.13 89.6495C152.279 89.7463 152.434 89.8442 152.583 89.9409C152.282 89.7306 152.272 89.7284 152.541 89.9322C152.728 90.0859 152.922 90.2303 153.107 90.3893C153.352 90.6044 153.578 90.832 153.804 91.0595C153.326 90.5717 153.965 91.2844 154.047 91.4162C154.129 91.5481 154.211 91.6799 154.286 91.8159C154.132 91.483 154.119 91.464 154.243 91.7631C154.295 91.9051 154.341 92.0513 154.382 92.1965C154.327 91.8572 154.308 91.793 154.339 92.0073C154.338 92.2254 154.213 92.8988 154.365 92.3023C154.337 92.4656 154.297 92.6268 154.253 92.7869C154.382 92.4314 154.38 92.4146 154.238 92.7291C154.163 92.8774 154.084 93.0193 153.995 93.1591C154.19 92.8776 154.186 92.8713 153.977 93.139C153.763 93.3511 153.563 93.5769 153.349 93.789C153.2 93.9272 153.221 93.9043 153.423 93.7226C153.285 93.8304 153.143 93.9372 152.996 94.0377C152.708 94.2396 152.412 94.4237 152.108 94.5952C152.022 94.6426 151.083 95.1021 151.578 94.8779C151.282 95.0126 150.982 95.1411 150.684 95.2591C150.039 95.5177 149.374 95.7394 148.707 95.9223C148.347 96.0219 147.989 96.111 147.628 96.1886C148.178 96.0686 147.255 96.2471 147.146 96.2682C146.458 96.3701 145.765 96.4384 145.07 96.4679C144.7 96.4835 144.327 96.4875 143.956 96.4811C143.842 96.479 142.719 96.4082 143.352 96.4642C141.825 96.3363 140.147 97.0399 139.868 98.7409C139.637 100.157 140.504 102.081 142.149 102.223C145.12 102.51 148.116 102.23 150.978 101.391C153.646 100.588 156.517 99.2592 158.344 97.0842C160.541 94.6093 160.8 90.9643 158.969 88.205C157.421 85.8489 154.823 84.2241 152.3 83.074C149.015 81.5952 145.455 80.8293 141.852 80.8413C140.232 80.9507 139.005 82.3443 139.099 83.9648C139.24 85.5678 140.617 86.779 142.222 86.7156" fill="#3A6DFC"/>
<path d="M138.605 54.7084L164.597 53.5024C168.376 53.3252 168.016 47.4583 164.226 47.6333L138.234 48.8394C134.455 49.0166 134.815 54.8835 138.605 54.7084Z" fill="#3A6DFC"/>
<path d="M117.677 19.9501C115.566 21.5687 113.585 23.3511 111.749 25.2785C109.873 27.2633 108.097 29.3999 107.231 32.0272C105.876 36.4701 107.374 41.2908 111.007 44.192C112.227 45.2392 114.052 45.1453 115.165 43.9845C116.161 42.8815 116.224 40.802 114.955 39.8319C114.653 39.5995 114.377 39.3506 114.092 39.0942C113.475 38.5391 114.215 39.2894 113.925 38.9228C113.809 38.7728 113.698 38.6239 113.594 38.4656C113.49 38.3074 113.386 38.1491 113.294 37.9878C113.265 37.9435 113.026 37.4672 113.131 37.6968C113.247 37.9507 112.959 37.2348 112.967 37.2527C112.9 37.0748 112.845 36.8939 112.789 36.713C112.739 36.5332 112.685 36.3471 112.653 36.1601C112.715 36.468 112.672 36.2515 112.661 36.0689C112.624 35.6458 112.603 35.2208 112.61 34.796C112.627 34.3242 112.542 35.2024 112.622 34.7384C112.655 34.5541 112.683 34.3687 112.722 34.1802C112.762 33.9918 112.809 33.816 112.865 33.6308C113.001 33.1621 112.51 34.3326 112.973 33.3748C113.864 31.7306 115.012 30.2387 116.371 28.949C117.778 27.4783 119.289 26.1113 120.901 24.8637C122.224 23.9492 122.598 22.1641 121.751 20.7961C120.934 19.5489 118.938 18.9679 117.678 19.9448" fill="#3A6DFC"/>
<path d="M122.21 22.6561C121.608 25.5407 117.46 27.1161 112.946 26.1728C108.433 25.2295 105.263 22.1247 105.866 19.2402C106.469 16.3557 110.617 14.7803 115.13 15.7236C119.643 16.6669 122.813 19.7716 122.21 22.6561Z" fill="#3A6DFC"/>
<path d="M148.399 76.4237C144.782 93.7309 127.802 104.825 110.472 101.203C93.142 97.581 82.0259 80.615 85.643 63.3078C89.2602 46.0007 106.241 34.9068 123.571 38.5287C140.9 42.1505 152.017 59.1166 148.399 76.4237Z" fill="#1249FC"/>
<path d="M168.342 64.1416C165.492 64.9009 162.217 61.9053 161.031 57.4503C159.843 53.0006 161.196 48.7811 164.046 48.0218C166.896 47.2625 170.171 50.2581 171.357 54.7131C172.545 59.1628 171.192 63.3823 168.342 64.1416Z" fill="#3A6DFC"/>
<path d="M109.308 83.6348C108.983 85.1896 109.621 86.6397 110.743 86.8742C111.864 87.1086 113.03 86.0354 113.355 84.4806C113.68 82.9258 113.042 81.4757 111.92 81.2412C110.798 81.0068 109.633 82.08 109.308 83.6348Z" fill="white"/>
<path d="M119.532 83.7657C119.208 85.3205 119.845 86.7706 120.967 87.005C122.089 87.2395 123.254 86.1663 123.579 84.6114C123.904 83.0566 123.266 81.6065 122.144 81.3721C121.023 81.1377 119.857 82.2109 119.532 83.7657Z" fill="white"/>
<path d="M112.167 91.9909C111.919 94.1464 113.466 96.0924 115.624 96.3413C117.782 96.5902 119.73 95.0466 119.978 92.8911C120.208 90.8739 118.868 89.0148 116.876 88.5985C114.636 88.2398 112.536 89.7568 112.167 91.9909Z" fill="white"/>
<path d="M112.345 80.1233L107.136 76.6689C106.671 76.3585 106.545 75.7311 106.854 75.2713C107.165 74.8062 107.793 74.6807 108.253 74.99L113.462 78.4444C113.92 78.7642 114.036 79.3893 113.72 79.8533C113.414 80.2975 112.802 80.421 112.344 80.1285" fill="white"/>
<path d="M115.224 124.904C122.514 129.81 130.151 134.182 138.076 137.991C141.491 139.634 144.182 134.404 140.766 132.762C132.847 128.954 125.21 124.582 117.914 119.675C116.595 118.788 114.614 119.652 113.95 120.945C113.155 122.5 113.899 124.016 115.223 124.91" fill="#3A6DFC"/>
<path d="M112.687 167.668C122.081 169.992 131.736 171.124 141.417 171.033C145.203 171.005 144.827 165.135 141.046 165.164C131.897 165.224 122.77 164.131 113.89 161.909C110.214 160.993 109.017 166.748 112.688 167.662" fill="#3A6DFC"/>
<path d="M169.031 178.433C169.612 178.637 168.971 178.405 169.509 178.604C169.864 178.739 170.225 178.869 170.578 179.014C171.235 179.271 171.875 179.563 172.501 179.891C172.788 180.038 173.059 180.204 173.337 180.366C173.786 180.629 173.324 180.298 173.748 180.654C174.129 180.947 174.482 181.277 174.8 181.639C175.436 182.471 175.794 183.48 175.827 184.525C175.848 184.847 175.85 185.175 175.838 185.495C175.823 185.721 175.792 185.95 175.751 186.17C175.644 186.815 175.494 187.455 175.297 188.081C174.936 189.103 174.428 190.068 173.796 190.947C173.046 191.888 172.028 192.572 170.873 192.915C168.314 193.746 165.174 193.248 162.346 192.777C160.761 192.479 159.221 193.485 158.861 195.054C158.546 196.638 159.557 198.188 161.142 198.536C165.161 199.201 169.474 199.818 173.376 198.268C177.397 196.672 179.797 193.305 181.057 189.29C182.166 185.763 182.012 181.474 179.723 178.423C177.374 175.293 173.798 173.922 170.227 172.684C168.722 172.162 167.037 173.548 166.742 174.961C166.383 176.678 167.513 177.92 169.023 178.443" fill="#3A6DFC"/>
<path d="M201.54 128.535C201.201 128.847 200.854 129.146 200.512 129.451C200.122 129.796 200.59 129.391 200.351 129.592C200.172 129.741 199.998 129.89 199.821 130.033C199.108 130.617 198.383 131.181 197.644 131.731C196.206 132.802 194.721 133.808 193.185 134.744C191.649 135.68 190.079 136.543 188.469 137.337C188.84 137.158 188.438 137.353 188.275 137.428C188.068 137.527 187.856 137.624 187.65 137.718C187.233 137.909 186.811 138.094 186.39 138.28C185.542 138.643 184.689 138.984 183.828 139.307C182.287 139.821 181.457 141.488 181.973 143.028C182.488 144.567 184.158 145.397 185.699 144.883C193.164 142.067 200.023 137.862 205.917 132.488C207.058 131.453 206.85 129.279 205.707 128.335C204.487 127.288 202.662 127.382 201.549 128.542" fill="#3A6DFC"/>
<path d="M191.02 156.043C187.402 173.35 170.422 184.444 153.092 180.822C135.762 177.2 124.646 160.234 128.263 142.927C131.88 125.62 148.861 114.526 166.191 118.148C183.521 121.77 194.637 138.736 191.02 156.043Z" fill="#1249FC"/>
<path d="M162.313 209.058C159.364 209.267 156.721 205.71 156.39 201.117C156.059 196.523 158.186 192.63 161.128 192.425C164.07 192.22 166.72 195.774 167.051 200.367C167.382 204.96 165.255 208.854 162.313 209.058Z" fill="#3A6DFC"/>
<path d="M213.099 129.323C212.275 133.265 208.41 135.79 204.463 134.965C200.516 134.14 197.986 130.279 198.81 126.337C199.633 122.395 203.498 119.869 207.446 120.694C211.393 121.519 213.923 125.381 213.099 129.323Z" fill="#3A6DFC"/>
<path d="M152.547 129.223C151.367 130.288 151.027 131.834 151.791 132.682C152.555 133.53 154.135 133.352 155.315 132.288C156.495 131.223 156.834 129.677 156.065 128.827C155.296 127.978 153.721 128.157 152.541 129.222" fill="white"/>
<path d="M143.991 128.12C142.811 129.184 142.472 130.731 143.235 131.579C143.999 132.427 145.579 132.249 146.759 131.184C147.939 130.119 148.278 128.573 147.509 127.724C146.74 126.875 145.166 127.054 143.986 128.118" fill="white"/>
<path d="M136.37 138.066L149.683 138.056L156.467 138.053C156.465 141.391 154.874 144.528 152.18 146.5C148.992 148.954 144.702 149.428 141.053 147.726C138.36 146.398 135.813 143.664 136.376 138.067" fill="white"/>
<path d="M149.53 142.919C149.289 142.868 149.122 142.648 149.141 142.4L149.48 138.078C149.509 137.811 149.752 137.616 150.025 137.646C150.281 137.678 150.47 137.897 150.461 138.152L150.121 142.474C150.098 142.742 149.864 142.945 149.595 142.921C149.574 142.917 149.553 142.913 149.532 142.908" fill="#ABC1FC"/>
<path d="M152.472 141.781C152.231 141.73 152.063 141.51 152.082 141.262L152.361 137.731C152.373 137.46 152.603 137.252 152.874 137.264C153.145 137.277 153.354 137.507 153.341 137.777C153.339 137.788 153.337 137.798 153.335 137.809L153.056 141.34C153.033 141.609 152.799 141.811 152.53 141.788C152.509 141.783 152.488 141.779 152.467 141.775" fill="#ABC1FC"/>
<path d="M120.18 123.022C119.356 126.964 115.491 129.489 111.544 128.664C107.597 127.839 105.067 123.978 105.891 120.036C106.714 116.094 110.579 113.569 114.527 114.394C118.474 115.219 121.004 119.08 120.18 123.022Z" fill="#3A6DFC"/>
<path d="M111.88 169.467C108.991 168.863 107.412 164.72 108.354 160.212C109.296 155.705 112.403 152.54 115.291 153.144C118.179 153.748 119.759 157.892 118.817 162.399C117.875 166.906 114.768 170.071 111.88 169.467Z" fill="#3A6DFC"/>
<path d="M103.18 125.649C102.356 129.591 98.4912 132.116 94.544 131.291C90.5969 130.466 88.0667 126.605 88.8906 122.663C89.7144 118.721 93.5794 116.196 97.5266 117.021C101.474 117.846 104.004 121.707 103.18 125.649Z" fill="#3A6DFC"/>
<path d="M91.0162 124.111C82.8167 127.664 74.5771 131.122 66.2984 134.478C64.7836 135.025 63.9654 136.663 64.443 138.199C64.971 139.73 66.6266 140.552 68.1694 140.055C76.4492 136.693 84.6877 133.241 92.8883 129.682C94.3978 129.134 95.216 127.497 94.7437 125.961C94.2713 124.556 92.4845 123.473 91.0173 124.106" fill="#3A6DFC"/>
<path d="M35.0373 168.825C29.3812 176.046 21.5428 181.249 12.6808 183.653C11.14 184.167 10.31 185.835 10.8254 187.374C11.3407 188.913 13.011 189.743 14.5518 189.229C24.3691 186.494 33.0628 180.733 39.4005 172.764C40.4536 171.547 40.3597 169.719 39.1906 168.611C37.9814 167.539 36.1301 167.628 35.0332 168.819" fill="#1249FC"/>
<path d="M63.5493 173.184L62.2738 172.743C62.1088 172.511 62.0869 172.485 62.2042 172.657C62.2548 172.755 62.534 173.278 62.3133 172.789C62.4825 173.158 62.6274 173.538 62.7607 173.921C62.8314 174.132 62.901 174.349 62.9653 174.565C62.9848 174.629 63.1575 175.32 63.0816 174.977C63.0024 174.649 63.1452 175.405 63.1411 175.399C63.1637 175.579 63.1811 175.757 63.1933 175.934C63.2072 176.156 63.1864 176.386 63.2118 176.605C63.2438 176.923 63.2928 176.217 63.2063 176.762C63.1354 177.206 63.0382 177.645 62.9201 178.079C63.0013 177.796 63.0176 177.848 62.9011 178.092C62.8038 178.295 62.7129 178.495 62.601 178.69C62.4891 178.885 62.2504 179.163 62.5135 178.847C62.3735 179.019 62.2229 179.19 62.0693 179.349C62.0269 179.395 61.6281 179.732 61.8691 179.548C62.1492 179.333 61.5777 179.738 61.5206 179.776C61.3369 179.896 61.149 180.009 60.9517 180.116C60.8473 180.17 60.314 180.392 60.7966 180.203C59.9894 180.532 59.1688 180.819 58.3361 181.06C57.9182 181.175 57.5025 181.28 57.0774 181.377C56.1988 181.575 57.3506 181.352 56.8375 181.425C56.601 181.457 56.3611 181.506 56.1245 181.538C55.1719 181.672 54.2145 181.751 53.2534 181.768C51.6372 181.884 50.4115 183.273 50.4998 184.892C50.6344 186.499 52.0168 187.711 53.6232 187.643C58.6611 187.516 64.8465 186.191 67.6941 181.623C69.0287 179.268 69.4258 176.505 68.8167 173.87C68.5507 172.525 68.0943 171.227 67.4554 170.017C66.6731 168.368 65.011 167.316 63.1815 167.327C61.5611 167.436 60.3343 168.83 60.4278 170.45C60.5688 172.053 61.946 173.264 63.5512 173.201" fill="#1249FC"/>
<path d="M82.335 148.375C78.7178 165.682 61.7372 176.776 44.4074 173.154C27.0776 169.532 15.9614 152.566 19.5786 135.259C23.1957 117.952 40.1763 106.858 57.5061 110.48C74.836 114.102 85.9521 131.068 82.335 148.375Z" fill="#1249FC"/>
<path d="M22.4591 150.588C21.1243 151.582 19.8395 152.624 18.5733 153.709C17.4929 154.56 16.4967 155.505 15.587 156.533C13.1842 159.025 13.2633 162.992 15.7595 165.393C15.9824 165.609 16.2213 165.801 16.4687 165.978C18.797 167.743 21.9827 168.704 24.8503 169.145C27.7613 169.666 30.7568 169.391 33.5192 168.345C35.0382 167.805 35.8575 166.162 35.3747 164.624C34.8372 163.217 33.1742 162.143 31.6483 162.769C31.1624 162.973 30.6621 163.142 30.1527 163.276C30.0769 163.298 29.2671 163.43 29.8748 163.349C29.6162 163.382 29.3554 163.426 29.0978 163.454C28.5723 163.508 28.048 163.53 27.5188 163.523C27.4526 163.526 26.5749 163.484 27.2435 163.531C26.979 163.514 26.7125 163.48 26.4461 163.447C25.4243 163.31 24.4137 163.093 23.4237 162.804C23.166 162.728 22.9093 162.647 22.6527 162.566C22.5249 162.523 22.3972 162.48 22.2694 162.437C22.55 162.534 22.5909 162.548 22.3825 162.472C21.8499 162.246 21.3095 162.056 20.7845 161.793C20.5607 161.687 20.3453 161.565 20.1375 161.434C20.5447 161.711 19.9521 161.248 19.8739 161.177C19.6449 160.938 19.6449 160.938 19.8717 161.187L19.7337 160.984C19.565 160.692 19.5639 160.697 19.7305 160.999L19.6537 160.765C19.7036 161.076 19.7147 161.127 19.6945 160.91C19.6878 160.706 19.679 160.748 19.6693 161.03C19.7432 160.729 19.7478 160.681 19.6831 160.886C19.6079 161.089 19.6282 161.044 19.7598 160.754C20.1048 160.072 19.4391 161.059 19.9419 160.459C20.1244 160.24 20.311 160.028 20.5122 159.824C20.9169 159.406 21.3539 159.017 21.7909 158.627C22.0132 158.428 22.2417 158.224 22.4692 158.026C22.5782 157.923 22.6977 157.822 22.8161 157.727C23.7489 156.955 24.693 156.207 25.6642 155.486C26.9972 154.579 27.3725 152.784 26.5144 151.419C25.633 150.191 23.7571 149.586 22.4414 150.568" fill="#3A6DFC"/>
<path d="M42.8109 165.374C41.9871 169.316 38.1221 171.841 34.1749 171.016C30.2277 170.191 27.6975 166.329 28.5214 162.387C29.3453 158.445 33.2103 155.92 37.1574 156.745C41.1046 157.57 43.6348 161.432 42.8109 165.374Z" fill="#3A6DFC"/>
<path d="M15.7806 186.727C14.9568 190.669 11.0918 193.194 7.14462 192.369C3.19744 191.545 0.667274 187.683 1.49114 183.741C2.31501 179.799 6.18 177.274 10.1272 178.099C14.0744 178.924 16.6045 182.785 15.7806 186.727Z" fill="#1249FC"/>
<path d="M60.4621 196.201C57.9911 197.815 53.9451 195.997 51.4191 192.142C48.8931 188.287 48.8504 183.858 51.3162 182.242C53.782 180.626 57.8332 182.446 60.3593 186.301C62.8853 190.156 62.928 194.586 60.4621 196.201Z" fill="#1249FC"/>
<path d="M73.3439 133.204C73.9987 134.652 73.6906 136.205 72.6511 136.676C71.6116 137.148 70.2351 136.352 69.5804 134.904C68.9256 133.456 69.2338 131.903 70.2785 131.433C71.3232 130.963 72.6944 131.757 73.3492 133.205" fill="white"/>
<path d="M64.3098 134.468C64.9645 135.916 64.6564 137.469 63.6169 137.94C62.5774 138.411 61.201 137.616 60.5462 136.167C59.8915 134.719 60.1996 133.166 61.2443 132.696C62.289 132.226 63.6603 133.021 64.315 134.469" fill="white"/>
<path d="M62.5546 131.113L56.8546 128.545C56.3429 128.323 56.1063 127.727 56.328 127.216C56.5497 126.705 57.1461 126.469 57.6578 126.691C57.6683 126.693 57.6735 126.694 57.6829 126.702L63.383 129.27C63.8936 129.497 64.1186 130.096 63.8916 130.605C63.6647 131.115 63.0653 131.34 62.5546 131.113Z" fill="white"/>
<path d="M64.9691 143.014L74.5244 141.716C74.5244 141.716 72.9617 150.607 71.0238 153.885C69.3406 156.729 67.2133 157.432 67.2133 157.432C67.2133 157.432 60.925 159.38 62.4995 151.846L64.9743 143.015L64.9691 143.014Z" fill="white"/>
</g>
<defs>
<clipPath id="clip0_886_2016">
<rect width="196" height="195" fill="white" transform="translate(39.8926) rotate(11.8047)"/>
</clipPath>
</defs>
</svg>
