<svg width="212" height="100" viewBox="0 0 212 100" fill="none" xmlns="http://www.w3.org/2000/svg">
<g clip-path="url(#clip0_887_1741)">
<path d="M197.037 65.1729C197.037 65.1729 209.463 65.0304 208.863 50.7422" stroke="#3A6DFC" stroke-width="4.34226" stroke-linecap="round" stroke-linejoin="round"/>
<path d="M67.3848 66.9883C67.3848 66.9883 69.4164 81.2159 71.4511 83.2505" stroke="#3A6DFC" stroke-width="4.34226" stroke-linecap="round" stroke-linejoin="round"/>
<path d="M134.463 66.9883C134.463 66.9883 132.431 81.2159 130.396 83.2505" stroke="#3A6DFC" stroke-width="4.34226" stroke-linecap="round" stroke-linejoin="round"/>
<path d="M79.5808 54.793C79.5808 54.793 75.5145 75.1215 71.4512 83.2512" stroke="#3A6DFC" stroke-width="4.34226" stroke-linecap="round" stroke-linejoin="round"/>
<path d="M122.267 54.793C122.267 54.793 126.333 75.1215 130.396 83.2512" stroke="#3A6DFC" stroke-width="4.34226" stroke-linecap="round" stroke-linejoin="round"/>
<path d="M98.9478 90.5781H95.4697V99.1171H98.9478V90.5781Z" fill="#1249FC"/>
<path d="M94.7662 95.9004H98.9478V99.1207H91.5459C91.5459 97.3438 92.9862 95.9004 94.7662 95.9004Z" fill="#1249FC"/>
<path d="M103.454 99.1191H106.932V90.5802H103.454V99.1191Z" fill="#1249FC"/>
<path d="M107.639 95.9004H103.457V99.1207H110.859C110.859 97.3438 109.419 95.9004 107.639 95.9004Z" fill="#1249FC"/>
<path d="M125.593 35.72C125.593 22.2487 114.673 11.3281 101.201 11.3281C87.7302 11.3281 76.8096 22.2487 76.8096 35.72V66.9891C76.8096 80.4604 87.7302 91.381 101.201 91.381C114.673 91.381 125.593 80.4604 125.593 66.9891V35.72Z" fill="#1249FC"/>
<path d="M198.642 65.1978V65.1948C198.642 51.1625 187.266 39.7871 173.234 39.7871H158.376C144.343 39.7871 132.968 51.1625 132.968 65.1948V65.1978C132.968 79.2301 144.343 90.6055 158.376 90.6055H173.234C187.266 90.6055 198.642 79.2301 198.642 65.1978Z" fill="#1249FC"/>
<path d="M14.0189 65.1729C14.0189 65.1729 1.59256 65.0304 2.19295 50.7422" stroke="#3A6DFC" stroke-width="4.34226" stroke-linecap="round" stroke-linejoin="round"/>
<path d="M60.5328 83.08C71.7672 71.8456 71.7673 53.631 60.5329 42.3966C49.2985 31.1622 31.0839 31.1622 19.8495 42.3966C8.61509 53.631 8.61509 71.8456 19.8495 83.08C31.0839 94.3144 49.2984 94.3144 60.5328 83.08Z" fill="#1249FC"/>
<path d="M30.8914 55.7575C31.9884 55.7575 32.8776 54.8682 32.8776 53.7713C32.8776 52.6744 31.9884 51.7852 30.8914 51.7852C29.7945 51.7852 28.9053 52.6744 28.9053 53.7713C28.9053 54.8682 29.7945 55.7575 30.8914 55.7575Z" fill="white"/>
<path d="M49.4891 55.7575C50.586 55.7575 51.4753 54.8682 51.4753 53.7713C51.4753 52.6744 50.586 51.7852 49.4891 51.7852C48.3922 51.7852 47.5029 52.6744 47.5029 53.7713C47.5029 54.8682 48.3922 55.7575 49.4891 55.7575Z" fill="white"/>
<path d="M43.887 59.3379C43.887 59.3379 40.2968 62.4521 36.4912 59.3379" stroke="white" stroke-width="2.60475" stroke-linecap="round" stroke-linejoin="round"/>
<path d="M37.9351 90.5781H34.457V99.1171H37.9351V90.5781Z" fill="#1249FC"/>
<path d="M33.7535 95.9004H37.9351V99.1207H30.5332C30.5332 97.3438 31.9735 95.9004 33.7535 95.9004Z" fill="#1249FC"/>
<path d="M42.4438 99.1191H45.9219V90.5802H42.4438V99.1191Z" fill="#1249FC"/>
<path d="M46.6259 95.9004H42.4443V99.1207H49.8462C49.8462 97.3438 48.4058 95.9004 46.6259 95.9004Z" fill="#1249FC"/>
<path d="M93.8701 33.9631C94.0458 32.8803 93.3106 31.8601 92.2278 31.6843C91.1451 31.5086 90.1248 32.2439 89.9491 33.3266C89.7733 34.4094 90.5086 35.4296 91.5914 35.6053C92.6741 35.7811 93.6943 35.0458 93.8701 33.9631Z" fill="white"/>
<path d="M112.474 33.8892C112.608 32.8005 111.835 31.8093 110.746 31.6752C109.657 31.5411 108.666 32.315 108.532 33.4037C108.398 34.4924 109.172 35.4837 110.26 35.6177C111.349 35.7518 112.34 34.9779 112.474 33.8892Z" fill="white"/>
<path d="M97.1378 38.5605H105.267C105.267 38.5605 105.267 44.6585 101.201 44.6585C97.1348 44.6585 97.1348 38.5605 97.1348 38.5605H97.1378Z" stroke="white" stroke-width="2.60475" stroke-linecap="round" stroke-linejoin="round"/>
<path d="M174.929 60.0211C176.025 60.0211 176.915 59.1319 176.915 58.035C176.915 56.9381 176.025 56.0488 174.929 56.0488C173.832 56.0488 172.942 56.9381 172.942 58.035C172.942 59.1319 173.832 60.0211 174.929 60.0211Z" fill="white"/>
<path d="M154.697 57.0254L156.732 59.057L154.697 61.0887" stroke="white" stroke-width="2.60475" stroke-linecap="round" stroke-linejoin="round"/>
<path d="M162.107 63.6016C162.107 63.6016 165.698 66.7157 169.503 63.6016" stroke="white" stroke-width="2.60475" stroke-linecap="round" stroke-linejoin="round"/>
<path d="M168.06 99.1191H171.538V90.5802H168.06V99.1191Z" fill="#1249FC"/>
<path d="M172.242 95.9004H168.061V99.1207H175.462C175.462 97.3438 174.022 95.9004 172.242 95.9004Z" fill="#1249FC"/>
<path d="M163.551 90.5781H160.073V99.1171H163.551V90.5781Z" fill="#1249FC"/>
<path d="M159.37 95.9004H163.551V99.1207H156.149C156.149 97.3438 157.59 95.9004 159.37 95.9004Z" fill="#1249FC"/>
<path d="M173.085 39.7866H156.822L157.025 39.3802L157.838 37.7549L159.057 35.3139L159.873 33.6886L161.092 31.2476L161.904 29.6253L163.123 27.1813L163.936 25.559L164.952 23.5273L167.19 28L168.002 29.6253L170.034 33.6886L170.85 35.3139L173.085 39.7866Z" fill="#ABC1FC"/>
<path d="M163.936 25.5597C164.497 25.5597 164.952 26.0145 164.952 26.5755C164.952 27.1365 164.497 27.5913 163.936 27.5913C163.602 27.5913 163.305 27.4306 163.123 27.182L163.936 25.5566V25.5597Z" fill="#7AA1FC"/>
<path d="M167.189 27.9991C167.062 28.1689 166.986 28.3782 166.986 28.6056C166.986 29.1666 167.441 29.6214 168.002 29.6214L167.189 27.9961V27.9991Z" fill="#7AA1FC"/>
<path d="M170.033 33.6886C169.472 33.6886 169.018 34.1434 169.018 34.7044C169.018 35.2654 169.472 35.7202 170.033 35.7202C170.367 35.7202 170.664 35.5595 170.846 35.3109L170.033 33.6855V33.6886Z" fill="#7AA1FC"/>
<path d="M168.002 39.7856C168.563 39.7856 169.018 39.3308 169.018 38.7697C169.018 38.2087 168.563 37.7539 168.002 37.7539C167.441 37.7539 166.986 38.2087 166.986 38.7697C166.986 39.3308 167.441 39.7856 168.002 39.7856Z" fill="#7AA1FC"/>
<path d="M163.936 37.7543C164.497 37.7543 164.952 37.2995 164.952 36.7385C164.952 36.1775 164.497 35.7227 163.936 35.7227C163.375 35.7227 162.92 36.1775 162.92 36.7385C162.92 37.2995 163.375 37.7543 163.936 37.7543Z" fill="#7AA1FC"/>
<path d="M158.854 38.7708C158.854 39.3318 158.399 39.7866 157.838 39.7866C157.504 39.7866 157.207 39.6259 157.025 39.3773L157.838 37.752C158.399 37.752 158.854 38.2068 158.854 38.7678V38.7708Z" fill="#7AA1FC"/>
<path d="M160.888 34.7044C160.888 35.2654 160.433 35.7202 159.872 35.7202C159.539 35.7202 159.242 35.5595 159.06 35.3109L159.872 33.6855C160.433 33.6855 160.888 34.1404 160.888 34.7014V34.7044Z" fill="#7AA1FC"/>
<path d="M165.971 33.6879C166.532 33.6879 166.987 33.2331 166.987 32.6721C166.987 32.111 166.532 31.6562 165.971 31.6562C165.41 31.6562 164.955 32.111 164.955 32.6721C164.955 33.2331 165.41 33.6879 165.971 33.6879Z" fill="#7AA1FC"/>
<path d="M162.92 30.6419C162.92 31.2029 162.465 31.6577 161.904 31.6577C161.571 31.6577 161.274 31.497 161.092 31.2484L161.904 29.623C162.465 29.623 162.92 30.0779 162.92 30.6389V30.6419Z" fill="#7AA1FC"/>
<path d="M56.5403 17.1602L53.8779 23.0762L59.7909 20.4108L57.1286 26.3268L63.0446 23.6645L60.3822 29.5805" stroke="#7AA1FC" stroke-width="3.942" stroke-linecap="round" stroke-linejoin="round"/>
<path d="M77.8275 1.9707L77.0391 5.46998L80.5383 4.68158L79.7499 8.18086" stroke="#7AA1FC" stroke-width="3.942" stroke-linecap="round" stroke-linejoin="round"/>
<path d="M177.43 8.18206L173.934 7.39062L174.722 10.8929L171.223 10.1015" stroke="#7AA1FC" stroke-width="3.942" stroke-linecap="round" stroke-linejoin="round"/>
<path d="M116.449 4.11457L112.95 3.32617L113.739 6.82545L110.239 6.03705" stroke="#7AA1FC" stroke-width="3.942" stroke-linecap="round" stroke-linejoin="round"/>
<path d="M31.0755 6.03711L30.2871 9.53639L33.7864 8.74496L32.998 12.2473" stroke="#7AA1FC" stroke-width="3.942" stroke-linecap="round" stroke-linejoin="round"/>
<path d="M192.731 23.2578L189.662 28.7645L195.169 25.6958L192.1 31.2025L197.61 28.1368L194.541 33.6465" stroke="#7AA1FC" stroke-width="3.942" stroke-linecap="round" stroke-linejoin="round"/>
<path d="M15.8866 27.5483L10.38 24.4766L13.4486 29.9832L7.94198 26.9145L11.0107 32.4242L5.50098 29.3555" stroke="#7AA1FC" stroke-width="3.942" stroke-linecap="round" stroke-linejoin="round"/>
<path d="M135.593 19.1937L141.506 21.8561L138.843 15.9431L144.756 18.6055L142.097 12.6895L148.013 15.3488" stroke="#7AA1FC" stroke-width="3.942" stroke-linecap="round" stroke-linejoin="round"/>
</g>
<defs>
<clipPath id="clip0_887_1741">
<rect width="211.055" height="99.12" fill="white"/>
</clipPath>
</defs>
</svg>
