<svg width="129" height="135" viewBox="0 0 129 135" fill="none" xmlns="http://www.w3.org/2000/svg">
<path d="M96.75 102.035C114.561 84.224 114.561 55.3463 96.75 37.5352C78.9388 19.724 50.0612 19.724 32.25 37.5352C14.4388 55.3463 14.4388 84.224 32.25 102.035C50.0612 119.846 78.9388 119.846 96.75 102.035Z" fill="#1249FC"/>
<path d="M79.6884 58.6147L70.6514 54.5431C69.8401 54.1916 69.4651 53.247 69.8165 52.4369C70.168 51.6268 71.1135 51.2527 71.9248 51.6042C71.9414 51.6076 71.9497 51.6094 71.9646 51.6212L81.0016 55.6928C81.8111 56.0525 82.1678 57.002 81.8081 57.8103C81.4483 58.6187 80.4979 58.9744 79.6884 58.6147Z" fill="white"/>
<path d="M81.1287 52.0553L71.4491 54.1887C70.5886 54.3915 69.7235 53.858 69.5214 52.9984C69.3193 52.1388 69.8541 51.2739 70.7147 51.0711C70.7301 51.064 70.7378 51.0604 70.7567 51.0609L80.4363 48.9275C81.3004 48.7324 82.1536 49.2808 82.348 50.144C82.5424 51.0071 81.9928 51.8602 81.1287 52.0553Z" fill="white"/>
<path d="M48.3946 57.0268L57.4316 52.9552C58.2429 52.6037 58.6179 51.6591 58.2665 50.849C57.915 50.0389 56.9695 49.6648 56.1582 50.0163C56.1416 50.0198 56.1333 50.0215 56.1184 50.0333L47.0814 54.1049C46.2719 54.4646 45.9152 55.4141 46.275 56.2224C46.6347 57.0308 47.5851 57.3866 48.3946 57.0268Z" fill="white"/>
<path d="M46.9543 50.4674L56.6339 52.6008C57.4944 52.8036 58.3595 52.2701 58.5616 51.4105C58.7637 50.5509 58.2289 49.686 57.3684 49.4832C57.3529 49.4761 57.3452 49.4725 57.3263 49.473L47.6467 47.3397C46.7826 47.1446 45.9294 47.6929 45.735 48.5561C45.5406 49.4193 46.0902 50.2723 46.9543 50.4674Z" fill="white"/>
<path d="M81.2743 45.9291L72.2373 41.8575C71.4261 41.5061 71.051 40.5615 71.4025 39.7514C71.7539 38.9413 72.6995 38.5672 73.5107 38.9186C73.5274 38.9221 73.5357 38.9238 73.5505 38.9356L82.5875 43.0072C83.3971 43.367 83.7538 44.3164 83.394 45.1248C83.0342 45.9331 82.0838 46.2889 81.2743 45.9291Z" fill="white"/>
<path d="M58.6389 66.6107C58.6389 66.6107 64.3131 61.6529 70.3643 66.5684" stroke="white" stroke-width="2.92185" stroke-linecap="round" stroke-linejoin="round"/>
<path d="M60.9224 113.924H55.4082V127.462H60.9224V113.924Z" fill="#1249FC"/>
<path d="M54.293 122.361H60.9225V127.467H49.1875C49.1875 124.65 51.471 122.361 54.293 122.361Z" fill="#1249FC"/>
<path d="M68.0718 127.465H73.5859V113.927H68.0718V127.465Z" fill="#1249FC"/>
<path d="M74.7008 122.361H68.0713V127.467H79.8063C79.8063 124.65 77.5228 122.361 74.7008 122.361Z" fill="#1249FC"/>
<path d="M103.297 18.8535L99.0762 28.2329L108.451 24.0071L104.23 33.3865L113.609 29.1655L109.388 38.5449" fill="#D9D9D9"/>
<path d="M103.297 18.8535L99.0762 28.2329L108.451 24.0071L104.23 33.3865L113.609 29.1655L109.388 38.5449" stroke="#7AA1FC" stroke-width="4.42189" stroke-linecap="round" stroke-linejoin="round"/>
<path d="M59.1054 3L57.8555 8.54781L63.4033 7.29306L62.1533 12.8457" fill="#D9D9D9"/>
<path d="M59.1054 3L57.8555 8.54781L63.4033 7.29306L62.1533 12.8457" stroke="#7AA1FC" stroke-width="4.42189" stroke-linecap="round" stroke-linejoin="round"/>
<path d="M25.9675 30.8211L17.2372 25.9512L22.1023 34.6815L13.372 29.8164L18.2371 38.5515L9.50195 33.6864" fill="#D9D9D9"/>
<path d="M25.9675 30.8211L17.2372 25.9512L22.1023 34.6815L13.372 29.8164L18.2371 38.5515L9.50195 33.6864" stroke="#7AA1FC" stroke-width="4.42189" stroke-linecap="round" stroke-linejoin="round"/>
<path d="M56.2701 93.982C56.2701 93.982 36.3148 93.7941 37.279 74.957" stroke="#80A1FF" stroke-width="4.87088" stroke-linecap="round" stroke-linejoin="round"/>
<path d="M70.5385 93.982C70.5385 93.982 90.4938 93.7941 89.5296 74.957" stroke="#80A1FF" stroke-width="4.87088" stroke-linecap="round" stroke-linejoin="round"/>
</svg>
