<svg width="10" height="12" viewBox="0 0 10 12" fill="none" xmlns="http://www.w3.org/2000/svg">
<path d="M4.97139 5.03507C6.31918 5.03507 7.41177 3.94247 7.41177 2.59468C7.41177 1.24689 6.31918 0.154297 4.97139 0.154297C3.6236 0.154297 2.53101 1.24689 2.53101 2.59468C2.53101 3.94247 3.6236 5.03507 4.97139 5.03507Z" fill="#ABC1FC"/>
<path d="M9.97223 8.71636C9.96334 8.66924 9.95223 8.62342 9.9389 8.57765C9.92556 8.53187 9.90556 8.4726 9.88334 8.42077C9.86889 8.38307 9.85223 8.3447 9.83334 8.30835C9.81445 8.27199 9.78889 8.22085 9.76334 8.17776C9.73778 8.13468 9.71889 8.10569 9.69445 8.07068C9.67001 8.03568 9.65889 8.01958 9.64111 7.99467C9.62333 7.96976 9.61 7.9529 9.59334 7.93271L9.58778 7.92465C9.55666 7.88493 9.52111 7.84452 9.48444 7.80615C9.45999 7.77788 9.43445 7.75024 9.40667 7.72331C9.36445 7.67843 9.31999 7.63646 9.27332 7.59742L9.16222 7.49987L9.15334 7.49313C9.11408 7.46082 9.07334 7.42981 9.03112 7.40019L8.99222 7.37192C8.95148 7.34185 8.90889 7.31288 8.86444 7.28505C8.85682 7.27939 8.84865 7.27404 8.83999 7.26895C8.79777 7.24134 8.75333 7.21444 8.70666 7.18751C8.66 7.16058 8.62 7.13629 8.57556 7.11272C8.56445 7.10599 8.55334 7.09996 8.54223 7.09391C8.53197 7.08729 8.52082 7.08123 8.50889 7.07574C8.46223 7.05084 8.41667 7.0272 8.37 7.00499C8.32334 6.98277 8.25111 6.94711 8.18888 6.92018C8.14222 6.89864 8.09445 6.87846 8.04667 6.85961C7.99889 6.84076 7.97222 6.82998 7.93555 6.8145C7.83778 6.77545 7.73777 6.73976 7.63333 6.7061C7.59666 6.69331 7.55778 6.68121 7.52223 6.67044C7.50016 6.66244 7.47712 6.65546 7.45332 6.64956C7.4111 6.63543 7.36666 6.62265 7.32222 6.61053C7.21111 6.57956 7.10777 6.55194 6.99666 6.52703C6.96111 6.51828 6.92777 6.51087 6.89333 6.50279C6.85888 6.49471 6.79889 6.48196 6.74889 6.47321C6.57042 6.43702 6.38862 6.40709 6.20444 6.38363C6.14333 6.37488 6.08223 6.36752 6.02112 6.36079C5.96038 6.35361 5.8974 6.34756 5.83221 6.34263C5.81106 6.3395 5.7895 6.33745 5.76777 6.33654C5.74555 6.33654 5.72555 6.33247 5.70111 6.33112C5.64777 6.32641 5.59 6.32305 5.53667 6.32035H5.49778C5.42778 6.31632 5.35666 6.31366 5.28444 6.31164H5.26555C5.18222 6.31164 5.09888 6.30762 5.01333 6.30762C4.92777 6.30762 4.84445 6.3076 4.76112 6.31164H4.74223C4.67001 6.31164 4.6 6.31632 4.52889 6.32035H4.49C4.43444 6.32035 4.37889 6.32641 4.32556 6.33112C4.30112 6.33112 4.2811 6.33116 4.25888 6.33654C4.23715 6.33744 4.21559 6.33949 4.19444 6.34263C4.12925 6.34756 4.06629 6.35361 4.00555 6.36079C3.94444 6.36752 3.88334 6.37488 3.82222 6.38363C3.63804 6.40709 3.45625 6.43702 3.27777 6.47321C3.22777 6.48196 3.18001 6.49202 3.13334 6.50279C3.08667 6.51356 3.06445 6.51761 3.03001 6.52703C2.91889 6.55194 2.80778 6.57956 2.70445 6.61053C2.66001 6.62265 2.61555 6.63543 2.57333 6.64956C2.54953 6.65546 2.5265 6.66244 2.50444 6.67044C2.46778 6.68121 2.4289 6.69331 2.39334 6.7061C2.29001 6.73976 2.19 6.77343 2.09112 6.8145C2.05445 6.82931 2.01666 6.84346 1.98 6.85961C1.94333 6.87577 1.88334 6.89864 1.83779 6.92018C1.77445 6.94711 1.71555 6.97537 1.65666 7.00499C1.59777 7.03461 1.56444 7.05084 1.51777 7.07574C1.49555 7.08652 1.47111 7.09993 1.44889 7.11272C1.40445 7.13696 1.36001 7.16193 1.31778 7.18751C1.27556 7.21309 1.22666 7.24134 1.18444 7.26895C1.17578 7.27404 1.16764 7.27939 1.16001 7.28505C1.11556 7.31288 1.07296 7.34185 1.03222 7.37192C1.01889 7.38067 1.00666 7.39009 0.99333 7.40019C0.950367 7.42981 0.909626 7.46082 0.871107 7.49313L0.862223 7.49987L0.751105 7.59742C0.705179 7.63826 0.66074 7.68023 0.617777 7.72331C0.59 7.75024 0.564436 7.77788 0.539992 7.80615C0.503325 7.8452 0.467784 7.88493 0.436673 7.92465L0.431112 7.93271C0.414445 7.95223 0.397779 7.9738 0.383335 7.99467C0.36889 8.01554 0.346663 8.04443 0.329997 8.07068C0.31333 8.09694 0.282223 8.14141 0.261112 8.17776C0.240001 8.21412 0.211108 8.26459 0.191108 8.30835C0.171108 8.3521 0.155554 8.38307 0.14111 8.42077C0.118888 8.4726 0.0999954 8.52446 0.0855509 8.57765C0.0711065 8.63083 0.0611079 8.66924 0.052219 8.71636C0.0254288 8.80966 0.00799271 8.90382 0 8.9984V11.0927C0.0171798 11.2612 0.143669 11.4187 0.351851 11.5308C0.560032 11.643 0.83299 11.7006 1.11111 11.6912H8.88889C9.16701 11.7006 9.43997 11.643 9.64815 11.5308C9.85633 11.4187 9.98282 11.2612 10 11.0927V8.9984C10.0001 8.90412 9.99082 8.80997 9.97223 8.71636Z" fill="#ABC1FC"/>
</svg>
