<svg width="16" height="15" viewBox="0 0 16 15" fill="none" xmlns="http://www.w3.org/2000/svg">
<path d="M9.7516 5.24997V2.24999C9.7516 1.65325 9.51221 1.08096 9.08608 0.659006C8.65995 0.237051 8.08199 0 7.47935 0L4.44968 6.74996V14.9999H12.9934C13.3587 15.004 13.7132 14.8772 13.9916 14.6429C14.2699 14.4086 14.4534 14.0826 14.5082 13.7249L15.5534 6.97496C15.5864 6.75997 15.5717 6.54047 15.5105 6.33165C15.4493 6.12283 15.3429 5.92968 15.1988 5.7656C15.0547 5.60151 14.8763 5.47041 14.676 5.38138C14.4757 5.29234 14.2582 5.2475 14.0386 5.24997H9.7516ZM4.44968 14.9999H2.17743C1.77567 14.9999 1.39037 14.8419 1.10628 14.5606C0.822196 14.2793 0.662598 13.8977 0.662598 13.4999V8.24995C0.662598 7.85213 0.822196 7.4706 1.10628 7.18929C1.39037 6.90799 1.77567 6.74996 2.17743 6.74996H4.44968" fill="#AAAAAA"/>
</svg>
