<svg width="11" height="21" viewBox="0 0 11 21" fill="none" xmlns="http://www.w3.org/2000/svg">
<g filter="url(#filter0_d_1218_2931)">
<path d="M5.5 3C6.32843 3 7 2.32843 7 1.5C7 0.671573 6.32843 0 5.5 0C4.67157 0 4 0.671573 4 1.5C4 2.32843 4.67157 3 5.5 3Z" fill="#B7B7B7"/>
<path d="M5.5 8C6.32843 8 7 7.32843 7 6.5C7 5.67157 6.32843 5 5.5 5C4.67157 5 4 5.67157 4 6.5C4 7.32843 4.67157 8 5.5 8Z" fill="#B7B7B7"/>
<path d="M5.5 13C6.32843 13 7 12.3284 7 11.5C7 10.6716 6.32843 10 5.5 10C4.67157 10 4 10.6716 4 11.5C4 12.3284 4.67157 13 5.5 13Z" fill="#B7B7B7"/>
</g>
<defs>
<filter id="filter0_d_1218_2931" x="0" y="0" width="11" height="21" filterUnits="userSpaceOnUse" color-interpolation-filters="sRGB">
<feFlood flood-opacity="0" result="BackgroundImageFix"/>
<feColorMatrix in="SourceAlpha" type="matrix" values="0 0 0 0 0 0 0 0 0 0 0 0 0 0 0 0 0 0 127 0" result="hardAlpha"/>
<feOffset dy="4"/>
<feGaussianBlur stdDeviation="2"/>
<feComposite in2="hardAlpha" operator="out"/>
<feColorMatrix type="matrix" values="0 0 0 0 0 0 0 0 0 0 0 0 0 0 0 0 0 0 0.25 0"/>
<feBlend mode="normal" in2="BackgroundImageFix" result="effect1_dropShadow_1218_2931"/>
<feBlend mode="normal" in="SourceGraphic" in2="effect1_dropShadow_1218_2931" result="shape"/>
</filter>
</defs>
</svg>
