<svg width="89" height="92" viewBox="0 0 89 92" fill="none" xmlns="http://www.w3.org/2000/svg">
<path d="M38.4378 13.5C41.1321 8.83334 47.8679 8.83333 50.5622 13.5L76.9759 59.25C79.6702 63.9167 76.3024 69.75 70.9138 69.75H18.0862C12.6976 69.75 9.32974 63.9167 12.024 59.25L38.4378 13.5Z" fill="#D7533E"/>
<path d="M44.2017 50.3501H47.0481L47.6395 35.5639L47.7504 31.128H43.4624L43.5733 35.5639L44.2017 50.3501ZM45.6064 59.5175C47.2329 59.5175 48.4527 58.2607 48.4527 56.5233C48.4527 54.749 47.2329 53.5291 45.6064 53.5291C44.0169 53.5291 42.76 54.749 42.76 56.5233C42.76 58.2607 44.0169 59.5175 45.6064 59.5175Z" fill="white"/>
</svg>
